<svg xmlns="http://www.w3.org/2000/svg" width="205.569" height="38.846" viewBox="0 0 205.569 38.846">
  <g id="eservice-logo" transform="translate(-344 -1284)">
    <path id="Path_6103" data-name="Path 6103" d="M186.614,402.566a8.568,8.568,0,0,0-1.509-3.306,7.115,7.115,0,0,0-2.615-1.994,8,8,0,0,0-3.419-.757,7.363,7.363,0,0,0-5.086,1.9,8.585,8.585,0,0,0-2.349,4.154Zm0,5.412,2.178,1.143a11.815,11.815,0,0,1-2.478,3.4,9.823,9.823,0,0,1-3.159,1.966,11.053,11.053,0,0,1-3.972.676,9.608,9.608,0,0,1-7.692-3.222,10.876,10.876,0,0,1-2.773-7.286,10.743,10.743,0,0,1,2.348-6.815,9.594,9.594,0,0,1,7.964-3.8,9.916,9.916,0,0,1,8.209,3.9,10.873,10.873,0,0,1,2.219,6.872h-18.08a8.17,8.17,0,0,0,2.238,5.737,7.131,7.131,0,0,0,5.342,2.238,8.5,8.5,0,0,0,2.985-.535,7.885,7.885,0,0,0,2.472-1.415,12.076,12.076,0,0,0,2.2-2.851" transform="translate(226.816 898.316)" fill="#0140be"/>
    <path id="Path_6104" data-name="Path 6104" d="M259.209,402.566a8.626,8.626,0,0,0-1.507-3.306,7.146,7.146,0,0,0-2.617-1.994,8,8,0,0,0-3.419-.757,7.358,7.358,0,0,0-5.085,1.9,8.58,8.58,0,0,0-2.349,4.154Zm0,5.412,2.179,1.143a11.866,11.866,0,0,1-2.477,3.4,9.819,9.819,0,0,1-3.16,1.966,11.057,11.057,0,0,1-3.973.676,9.611,9.611,0,0,1-7.692-3.222,10.875,10.875,0,0,1-2.771-7.286,10.734,10.734,0,0,1,2.349-6.815,9.592,9.592,0,0,1,7.964-3.8,9.915,9.915,0,0,1,8.207,3.9,10.851,10.851,0,0,1,2.217,6.872H243.973a8.2,8.2,0,0,0,2.236,5.737,7.138,7.138,0,0,0,5.347,2.238,8.507,8.507,0,0,0,2.984-.535,7.782,7.782,0,0,0,2.467-1.415,11.936,11.936,0,0,0,2.2-2.851" transform="translate(196.665 898.316)" fill="#0140be"/>
    <path id="Path_6105" data-name="Path 6105" d="M283.355,394.551H286v2.936a9.32,9.32,0,0,1,2.493-2.6,4.935,4.935,0,0,1,2.732-.857,4.741,4.741,0,0,1,2.29.682l-1.347,2.181a3.6,3.6,0,0,0-1.364-.353,3.745,3.745,0,0,0-2.5,1.064,6.748,6.748,0,0,0-1.828,3.3,31.667,31.667,0,0,0-.479,6.942v6.8h-2.64Z" transform="translate(179.204 898.316)" fill="#0140be"/>
    <path id="Path_6106" data-name="Path 6106" d="M304.465,394.919h2.753l6.745,14.647,6.662-14.647H323.4l-9.2,20.093h-.477Z" transform="translate(170.436 897.949)" fill="#0140be"/>
    <rect id="Rectangle_1529" data-name="Rectangle 1529" width="2.584" height="20.093" transform="translate(497.378 1292.868)" fill="#0140be"/>
    <path id="Path_6107" data-name="Path 6107" d="M375.353,398.724,373.3,400a8.585,8.585,0,0,0-7.249-3.528,8.387,8.387,0,0,0-6.1,2.362,7.706,7.706,0,0,0-2.426,5.736,8.153,8.153,0,0,0,1.117,4.132,7.847,7.847,0,0,0,3.06,3.008,8.925,8.925,0,0,0,4.365,1.069,8.813,8.813,0,0,0,7.229-3.527l2.049,1.348a9.673,9.673,0,0,1-3.867,3.366,12.36,12.36,0,0,1-5.532,1.2,10.925,10.925,0,0,1-7.9-3.03,9.852,9.852,0,0,1-3.139-7.367,10.505,10.505,0,0,1,1.469-5.42,10.328,10.328,0,0,1,4.035-3.907,11.765,11.765,0,0,1,5.741-1.4,12.314,12.314,0,0,1,3.852.609,10.711,10.711,0,0,1,3.148,1.588,8.639,8.639,0,0,1,2.2,2.493" transform="translate(149.485 898.316)" fill="#0140be"/>
    <path id="Path_6108" data-name="Path 6108" d="M414.6,402.566a8.6,8.6,0,0,0-1.509-3.306,7.091,7.091,0,0,0-2.615-1.994,8,8,0,0,0-3.419-.757,7.366,7.366,0,0,0-5.086,1.9,8.6,8.6,0,0,0-2.349,4.154Zm0,5.412,2.18,1.143a11.819,11.819,0,0,1-2.481,3.4,9.83,9.83,0,0,1-3.155,1.966,11.1,11.1,0,0,1-3.976.676,9.608,9.608,0,0,1-7.691-3.222,10.88,10.88,0,0,1-2.771-7.286,10.738,10.738,0,0,1,2.346-6.815,9.593,9.593,0,0,1,7.968-3.8,9.914,9.914,0,0,1,8.2,3.9,10.881,10.881,0,0,1,2.22,6.872h-18.08a8.177,8.177,0,0,0,2.236,5.737,7.132,7.132,0,0,0,5.343,2.238,8.5,8.5,0,0,0,2.985-.535,7.853,7.853,0,0,0,2.47-1.415,12.044,12.044,0,0,0,2.2-2.851" transform="translate(132.128 898.316)" fill="#0140be"/>
    <path id="Path_6109" data-name="Path 6109" d="M223.813,396.3l-2.092,1.718a8.386,8.386,0,0,0-5.1-2.012,4.446,4.446,0,0,0-2.711.83,2.385,2.385,0,0,0-1.13,1.94,2.571,2.571,0,0,0,.932,1.864,13.543,13.543,0,0,0,3.91,2.125,14.827,14.827,0,0,1,4.934,2.878,4.578,4.578,0,0,1,1.283,3.161,5.168,5.168,0,0,1-2.19,4.192,8.583,8.583,0,0,1-5.464,1.718,11.611,11.611,0,0,1-4.179-.758,8.973,8.973,0,0,1-3.291-2.087l2.042-1.848a7.817,7.817,0,0,0,5.285,2.233,5.523,5.523,0,0,0,3.332-.995,2.871,2.871,0,0,0,1.372-2.345,2.671,2.671,0,0,0-.909-1.977,15.146,15.146,0,0,0-4.1-2.143,13.233,13.233,0,0,1-4.655-2.769,4.542,4.542,0,0,1-1.235-3.122,4.627,4.627,0,0,1,1.968-3.805,7.9,7.9,0,0,1,4.969-1.515,11.548,11.548,0,0,1,7.027,2.716" transform="translate(210.204 898.502)" fill="#0140be"/>
    <path id="Path_6110" data-name="Path 6110" d="M100.032,379.752a19.429,19.429,0,0,0-19.212,16.34,26.47,26.47,0,0,0,5.194,2.368c.091.028.185.054.274.086v-.012c0,.007.008.009.01.012v-.008a18.832,18.832,0,0,0,12.866-1.148,22.7,22.7,0,0,1,9.786-2.136.014.014,0,0,0,0-.011c-.013-.033-.033-.067-.046-.1-.043-.1-.088-.188-.132-.282-.019-.04-.042-.079-.062-.118-.042-.084-.086-.17-.132-.256-.029-.054-.061-.109-.092-.161-.04-.068-.075-.136-.115-.2s-.1-.158-.15-.239c-.015-.019-.029-.04-.045-.062s-.033-.053-.049-.079c-.066-.1-.132-.192-.2-.288-.015-.025-.036-.049-.056-.075-.141-.2-.3-.389-.454-.573a.4.4,0,0,0-.032-.036c-.05-.062-.106-.119-.159-.178s-.122-.134-.187-.2c-.04-.044-.083-.088-.126-.13-.089-.092-.185-.181-.277-.267-.02-.016-.036-.036-.057-.053a10.265,10.265,0,0,0-.8-.656l0,0a9.785,9.785,0,0,0-2.5-1.328l-.006.008a9.756,9.756,0,0,0-3.6-.568H99.6c-.033,0-.063.005-.092.005-.113.005-.224.011-.336.023s-.21.016-.316.032c-.074.008-.148.018-.22.027s-.161.022-.24.036a.588.588,0,0,0-.07.015c-.106.018-.214.039-.319.059l-.071.016c-.092.02-.187.042-.283.066-.056.013-.111.026-.167.043-.105.027-.213.056-.316.089-.145.042-.286.089-.425.139a.2.2,0,0,0-.035.013c-.133.047-.264.1-.393.155a9.848,9.848,0,0,0-1.973,1.083l0,0q-.242.173-.471.361l-.071.054c-.123.1-.242.209-.36.316-.053.049-.107.1-.158.145-.08.074-.156.153-.233.23s-.171.175-.251.264a0,0,0,0,0,0,0c-.033.036-.062.07-.095.105-.108.125-.215.249-.316.377-.023.028-.043.056-.068.086-.107.14-.216.281-.315.426a.926.926,0,0,0-.056.08c-.1.147-.2.3-.295.455-.015.025-.031.051-.044.078-.091.149-.176.3-.257.46-.039.071-.075.147-.112.22s-.069.15-.107.224c-.188.412-.723,2.169-.855,2.6a14.613,14.613,0,0,1-3.844-.8c.073-.285.484-1.722.575-2-.006-.006-.01-.013-.016-.02.021-.063.047-.122.071-.185v0a.207.207,0,0,1,.009-.026.291.291,0,0,1-.036.019,13.779,13.779,0,0,1,2.525-4.384,13.386,13.386,0,0,1,3.7-3.07c.01,0,.016-.01.028-.015.111-.063.22-.127.336-.189.084-.043.171-.08.258-.122s.16-.086.24-.126.146-.062.214-.1l.312-.136c.106-.046.212-.1.321-.138.075-.033.158-.056.232-.086.04-.016.083-.029.124-.044.023-.008.046-.02.07-.028.046-.016.092-.03.14-.047.1-.036.206-.078.315-.111.075-.023.155-.043.232-.066.163-.05.33-.1.5-.139.059-.017.118-.036.181-.05.039-.011.082-.016.122-.026.24-.058.488-.109.733-.151a.668.668,0,0,0,.077-.017.312.312,0,0,1,.04-.005c.3-.05.593-.087.893-.118l.047,0c.308-.03.616-.05.928-.06h.059c.112,0,.221-.006.332-.006.041,0,.087,0,.13,0a13.369,13.369,0,0,1,1.725.123c.023,0,.046,0,.069.007l.1.018c.151.022.3.046.454.075.067.01.134.023.2.037.141.026.284.057.425.091.076.018.156.034.234.056.118.03.24.061.355.094s.2.056.3.085l.27.086c.125.043.25.082.372.126.061.022.12.044.178.068.151.056.3.114.45.174.027.014.06.024.087.037.175.076.35.152.519.232,0,0,.005,0,.009,0a13.745,13.745,0,0,1,3.182,2.094c.016.017.033.031.049.046.117.1.23.208.344.317a.078.078,0,0,0,.013.011c.077.074.157.148.233.222.044.046.085.091.132.136a.579.579,0,0,0,.046.048c.026.027.051.057.079.083.1.112.208.222.306.334s.194.222.286.331c.038.046.078.094.114.141s.084.1.123.155c.181.226.353.46.52.7.016.025.036.053.056.081.108.16.217.325.316.489.009.013.016.026.026.039l.171.285c.069.123.141.247.21.374s.132.25.195.376a.209.209,0,0,1,.016.037c.04.074.075.145.111.219.018.034.036.069.054.107l-.006,0c.031.064.062.132.091.2a.313.313,0,0,1,.019.044c.074.17.148.341.216.515.011.027.02.05.029.073.064.161.119.324.177.488.013.04.031.082.044.122.05.147.092.293.139.441.016.063.036.124.053.185.036.129.07.257.1.388.023.085.043.171.063.257.025.108.05.218.071.328s.044.218.06.33c.02.088.034.177.049.267.019.131.04.263.057.395,0,.034.01.067.016.1l0,0a8.542,8.542,0,0,1,.046,1.4c-4.167.051-8.653.089-12.835,2.039a22.841,22.841,0,0,1-9.676,2.16h-.071a10.588,10.588,0,0,0,.533,1.031c.01.01.013.025.023.037.063.105.129.208.195.313.018.026.036.053.052.079.066.1.137.2.208.3.017.02.032.04.047.059a9.673,9.673,0,0,0,.655.8c.061.068.121.132.182.195l.125.13.28.269c.016.016.036.031.053.049q.385.346.8.655v0a9.823,9.823,0,0,0,2.5,1.331s0-.005,0-.008a9.783,9.783,0,0,0,3.866.558c.077-.006.151-.01.229-.013.114-.012.229-.023.344-.037.056-.006.116-.016.171-.025.233-.031.462-.068.693-.116l.025-.006a9.776,9.776,0,0,0,1.242-.354c.208-.072.409-.155.613-.242l.056-.025c.157-.068.31-.146.461-.219.081-.042.161-.081.24-.127a1.336,1.336,0,0,0,.122-.066c.149-.084.3-.171.439-.264a1.352,1.352,0,0,0,.125-.078c.132-.089.264-.178.392-.274.049-.036.1-.068.143-.105.123-.093.243-.189.361-.288a1.636,1.636,0,0,0,.128-.114c.122-.1.24-.208.357-.318.034-.031.068-.067.1-.1.122-.12.242-.24.357-.367.022-.023.041-.046.063-.07.125-.138.245-.278.363-.423l.024-.032a11.441,11.441,0,0,0,1.227-1.95c1.162.465,2.3,1.024,3.619,1.518a8.445,8.445,0,0,1-1.255,2.192c-.074.106-.151.209-.227.315a.965.965,0,0,0-.063.085,13.49,13.49,0,0,1-4.549,3.887c-.02.01-.041.016-.061.027a13.53,13.53,0,0,1-6.323,1.57,13.739,13.739,0,0,1-13.226-10.03c-.675-.286-1.377-.614-2.118-1.008a15.17,15.17,0,0,1-4.078-3.195c-.006.154-.013.31-.013.468a19.421,19.421,0,1,0,19.456-19.388" transform="translate(263.424 904.248)" fill="#0140be"/>
  </g>
</svg>
