<svg xmlns="http://www.w3.org/2000/svg" viewBox="0 0 172 62"><defs><style>.a{fill:#ffe800;}.b,.c{fill-rule:evenodd;}.c,.d{fill:#0072bc;}</style></defs><title>Zeichenfläche 2</title><rect class="a" x="110" y="18" width="62" height="22"/><path class="b" d="M9.55,61.85H8.44l-.88-3.56c-.14-.53-.28-1.17-.34-1.5-.07.33-.2,1-.34,1.52L6,61.85H4.9l-1.8-7H4.37l.78,3.43c.13.53.26,1.2.33,1.54.07-.35.22-1,.36-1.54l.88-3.43h1l.89,3.44c.13.55.27,1.18.35,1.53.07-.35.2-1,.32-1.54l.78-3.43h1.28Z"/><path class="b" d="M15.86,61.85v-7h1.29v7Zm.65-8a.9.9,0,1,1,.83-.89A.88.88,0,0,1,16.51,53.89Z"/><path class="b" d="M26.08,61.85v-4c0-1.42-.5-1.93-1.35-1.93s-1.36.66-1.36,1.8v4.12H22.08v-7h1.29v.67A2,2,0,0,1,25,54.65c1.53,0,2.34,1.08,2.34,3.16v4Z"/><path class="b" d="M36.16,56.86a2.08,2.08,0,0,0-1.54-.93c-.92,0-1.43.75-1.43,2.24,0,1.77.53,2.55,1.48,2.55a2,2,0,0,0,1.49-.9Zm0,5v-.67a2.45,2.45,0,0,1-1.72.82C33,62,31.9,60.9,31.9,58.21c0-2.42,1.23-3.56,2.6-3.56a2.27,2.27,0,0,1,1.65.81V52.77l1.28-.71v9.79Z"/><path class="b" d="M44.87,56c-1,0-1.58.93-1.58,2.32,0,1.55.66,2.39,1.64,2.39s1.62-1.06,1.62-2.35S45.91,56,44.87,56Zm0,6C43.23,62,42,60.54,42,58.33s1.27-3.68,2.93-3.68,2.93,1.44,2.93,3.64S46.57,62,44.88,62Z"/><path class="b" d="M58.41,61.85h-1.1l-.89-3.56c-.14-.53-.28-1.17-.34-1.5-.06.33-.2,1-.34,1.52l-.88,3.54h-1.1l-1.8-7h1.27L54,58.23c.13.53.26,1.2.33,1.54.07-.35.22-1,.36-1.54l.88-3.43h1l.89,3.44c.13.55.27,1.18.35,1.53.07-.35.2-1,.32-1.54L59,54.8h1.28Z"/><path class="b" d="M74.15,61.68a2.44,2.44,0,0,1-1.26.32c-.92,0-1.48-.6-1.48-1.87V56.06h-.94V54.8h.94v-2l1.26-.73V54.8H74.3v1.26H72.67v3.83c0,.66.2.85.68.85a2,2,0,0,0,1-.28Z"/><path class="b" d="M81.59,56c-1,0-1.58.93-1.58,2.32,0,1.55.67,2.39,1.64,2.39s1.62-1.06,1.62-2.35S82.63,56,81.59,56Zm0,6c-1.65,0-2.89-1.46-2.89-3.67s1.28-3.68,2.93-3.68,2.93,1.44,2.93,3.64S83.3,62,81.6,62Z"/><path class="b" d="M98.63,61.68a2.48,2.48,0,0,1-1.27.32c-.91,0-1.48-.6-1.48-1.87V56.06h-.94V54.8h.94v-2l1.27-.73V54.8h1.63v1.26H97.15v3.83c0,.66.2.85.68.85a2.07,2.07,0,0,0,1-.28Z"/><path class="b" d="M107.49,61.85v-4c0-1.42-.5-1.93-1.35-1.93s-1.35.66-1.35,1.8v4.12H103.5V52.79l1.29-.73v3.41a2,2,0,0,1,1.65-.82c1.53,0,2.34,1.08,2.34,3.16v4Z"/><path class="b" d="M116.09,55.9c-.87,0-1.39.65-1.51,1.77h3.06C117.58,56.71,117.15,55.9,116.09,55.9Zm2.82,2.92h-4.35c.14,1.35.85,1.93,1.65,1.93a2.22,2.22,0,0,0,1.43-.56l.76.88a2.93,2.93,0,0,1-2.26.93c-1.54,0-2.85-1.33-2.85-3.67s1.18-3.68,2.88-3.68c1.87,0,2.77,1.63,2.77,3.54C118.94,58.44,118.92,58.67,118.91,58.82Z"/><path class="b" d="M135.86,61.85h-1.1l-.89-3.56c-.14-.53-.27-1.17-.34-1.5-.06.33-.2,1-.33,1.52l-.88,3.54h-1.1l-1.81-7h1.28l.78,3.43c.12.53.26,1.2.32,1.54.08-.35.23-1,.37-1.54L133,54.8h1l.89,3.44c.14.55.28,1.18.35,1.53.08-.35.2-1,.33-1.54l.78-3.43h1.27Z"/><path class="b" d="M144.68,56c-1,0-1.58.93-1.58,2.32,0,1.55.67,2.39,1.64,2.39s1.62-1.06,1.62-2.35S145.72,56,144.68,56Zm0,6c-1.65,0-2.89-1.46-2.89-3.67s1.28-3.68,2.93-3.68,2.93,1.44,2.93,3.64S146.39,62,144.69,62Z"/><path class="b" d="M155.79,56.26a1.81,1.81,0,0,0-1-.25c-.81,0-1.29.62-1.29,1.81v4h-1.29v-7h1.29v.67a1.94,1.94,0,0,1,2.62-.52Z"/><polygon class="b" points="160.49 61.85 160.49 52.79 161.78 52.06 161.78 61.85 160.49 61.85"/><path class="b" d="M170.68,56.86a2.06,2.06,0,0,0-1.54-.93c-.92,0-1.42.75-1.42,2.24,0,1.77.52,2.55,1.47,2.55a2,2,0,0,0,1.49-.9Zm0,5v-.67A2.43,2.43,0,0,1,169,62c-1.42,0-2.53-1.1-2.53-3.79,0-2.42,1.22-3.56,2.59-3.56a2.27,2.27,0,0,1,1.65.81V52.77l1.28-.71v9.79Z"/><path class="c" d="M3.51,17H0a4.82,4.82,0,0,0,0-2.07H3.51l.1-.43C4.37,8.39,7-.81,14.33.06a21.2,21.2,0,0,0-.26,4.36l-.25.21-1-.54A4.82,4.82,0,0,0,11,3.82C5.94,3.82,6.35,10,7.47,14.93h5.18a4.82,4.82,0,0,0,0,2.07H7.57V41c-.76,0-1.37-.16-2-.16s-1.37.11-2,.16Z"/><path class="c" d="M27.78,25.77c-.1-4.74-1.32-9.48-6.35-9.48-4.77,0-6.86,4.91-7.16,9.48ZM30.53,38.2a14.87,14.87,0,0,1-8.74,3.21c-7,0-12-5-12-13.4,0-7.58,4.06-13.41,11.63-13.41,5.64,0,10.83,4.25,10.32,13.35-3.46-.11-6.91-.16-10.32-.16H14.27c-.46,6.1,2.64,11.33,8.79,11.33,3.45,0,6.15-2.34,7.52-3.76Z"/><path class="c" d="M33.43,14.93c.66.06,1.32.16,2,.16s1.27-.1,2-.16v5.45l.26-.65c1.67-2.84,3.86-5.13,6.4-5.13a3.27,3.27,0,0,1,1.57.28L45,19.45c-.76-.21-1.52-.87-2.39-.87a4.37,4.37,0,0,0-3.25,1.36c-1.78,2.18-1.88,4-1.88,6.92V41c-.76,0-1.37-.16-2-.16s-1.37.11-2,.16Z"/><path class="c" d="M57.14,27.41l-1.77.38C51.91,28.5,46.73,29,46.73,34c0,3.43,1.88,5.12,5,5.12A6.43,6.43,0,0,0,55.77,37c.36-.38,1.37-1.31,1.37-1.69Zm4.07,9c0,2.12-.15,3.21,2.84,2.5v1.2a6.79,6.79,0,0,1-1.52.55c-2.64.49-4.83.05-5.23-3.16l-.46.49a9.71,9.71,0,0,1-7.52,3.43,6.56,6.56,0,0,1-6.76-6.65c0-6.21,4.62-7,9.4-7.84,4-.71,5.39-1,5.39-3.65,0-4-2.14-6.38-6-6.38a6.29,6.29,0,0,0-6,3.76H44.8V17.6a13.79,13.79,0,0,1,8.18-3c5.33,0,8.23,3,8.23,9.16Z"/><path class="c" d="M69.29,7.85v7.08h5.38a4.79,4.79,0,0,0,0,2.07H69.29V30.68c0,3.32-.46,8.82,3.76,8.82a11.31,11.31,0,0,0,2.28-.38v1.31a11.71,11.71,0,0,1-4.26,1c-3.86,0-6.1-1.91-5.85-8.55V17H62.07a4.52,4.52,0,0,0,0-2.07h3.15V9.54Z"/><path class="c" d="M90.93,25.77c-.1-4.74-1.32-9.48-6.35-9.48-4.78,0-6.86,4.91-7.17,9.48ZM93.67,38.2a14.87,14.87,0,0,1-8.74,3.21c-7,0-12-5-12-13.4,0-7.58,4.07-13.41,11.64-13.41,5.64,0,10.82,4.25,10.31,13.35-3.45-.11-6.91-.16-10.31-.16H77.41c-.45,6.1,2.65,11.33,8.79,11.33,3.46,0,6.15-2.34,7.52-3.76Z"/><path class="c" d="M96,.06c.66.05,1.32.16,2,.16s1.27-.11,2-.16V41c-.76,0-1.37-.16-2-.16s-1.37.11-2,.16Z"/><path class="d" d="M172,41.2a274.24,274.24,0,0,1-30.93,1.56,283.87,283.87,0,0,1-31.18-1.55l0-10.12H164l-54.11-10V3.26A303.71,303.71,0,0,1,141,1.62a273.82,273.82,0,0,1,31,1.65V19.92H117.57L172,30Z"/></svg>