<?xml version="1.0" encoding="UTF-8"?>
<svg width="162px" height="40px" viewBox="0 0 162 40" version="1.1" xmlns="http://www.w3.org/2000/svg" xmlns:xlink="http://www.w3.org/1999/xlink">
    <!-- Generator: Sketch 51.1 (57501) - http://www.bohemiancoding.com/sketch -->
    <title>GuestJoy_logo</title>
    <desc>Created with Sketch.</desc>
    <defs></defs>
    <g id="GuestJoy_logo" stroke="none" stroke-width="1" fill="none" fill-rule="evenodd">
        <g fill-rule="nonzero">
            <path d="M37.4942529,9.01149425 C37.6091954,8.89655172 37.7701149,8.82758621 37.954023,8.82758621 L40.6896552,8.82758621 C40.8965517,8.82758621 41.0344828,8.89655172 41.1494253,9.01149425 C41.2643678,9.12643678 41.3103448,9.28735632 41.3103448,9.49425287 L41.3103448,30.3908046 C41.3103448,30.5977011 41.2643678,30.7586207 41.1494253,30.8735632 C41.0344828,30.9885057 40.8735632,31.0574713 40.6896552,31.0574713 L37.954023,31.0574713 C37.7471264,31.0574713 37.6091954,30.9885057 37.4942529,30.8735632 C37.3793103,30.7586207 37.3333333,30.5977011 37.3333333,30.3908046 L37.3333333,29.0804598 C37.3333333,28.9885057 37.3103448,28.9425287 37.2413793,28.9195402 C37.1954023,28.8965517 37.1264368,28.9195402 37.0804598,28.9885057 C35.954023,30.5517241 34.2528736,31.3563218 31.9310345,31.3563218 C30.5517241,31.3563218 29.2873563,31.0804598 28.1149425,30.5287356 C26.9425287,29.9770115 26.0229885,29.1724138 25.3103448,28.091954 C24.5977011,27.0114943 24.2528736,25.7011494 24.2528736,24.1609195 L24.2528736,9.49425287 C24.2528736,9.28735632 24.2988506,9.12643678 24.4137931,9.01149425 C24.5287356,8.89655172 24.6896552,8.82758621 24.8735632,8.82758621 L27.6091954,8.82758621 C27.816092,8.82758621 27.954023,8.89655172 28.0689655,9.01149425 C28.183908,9.12643678 28.2298851,9.28735632 28.2298851,9.49425287 L28.2298851,22.8505747 C28.2298851,24.3678161 28.6206897,25.5632184 29.3793103,26.4367816 C30.1609195,27.3103448 31.2413793,27.7471264 32.6436782,27.7471264 C34.045977,27.7471264 35.1724138,27.3103448 36.0229885,26.4137931 C36.8735632,25.5172414 37.2873563,24.3448276 37.2873563,22.8505747 L37.2873563,9.49425287 C37.3333333,9.28735632 37.3793103,9.12643678 37.4942529,9.01149425 Z" id="Shape" fill="#1F263A"></path>
            <path d="M59.4482759,25.0804598 C59.5862069,24.8275862 59.7471264,24.6896552 59.908046,24.6896552 C60.045977,24.6896552 60.183908,24.7356322 60.2758621,24.8275862 L62,25.908046 C62.2298851,26.045977 62.3448276,26.2528736 62.3448276,26.4827586 L62.2528736,26.8275862 C61.4942529,28.2528736 60.4137931,29.3793103 59.0344828,30.183908 C57.6551724,30.9885057 56.0229885,31.4022989 54.1609195,31.4022989 C52.1609195,31.4022989 50.4827586,30.9425287 49.1034483,30.0229885 C47.7241379,29.1034483 46.6896552,27.7931034 45.9770115,26.0689655 C45.2643678,24.2988506 44.9195402,22.2068966 44.9195402,19.8390805 C44.9195402,17.7241379 45.0804598,16.091954 45.3793103,14.9885057 C45.8850575,12.9885057 46.8965517,11.4022989 48.4137931,10.2298851 C49.9310345,9.05747126 51.7701149,8.48275862 53.9310345,8.48275862 C56.5977011,8.48275862 58.6436782,9.1954023 60.045977,10.6436782 C61.4482759,12.091954 62.3678161,14.1609195 62.7816092,16.8965517 C62.9195402,17.9770115 63.0114943,19.2873563 63.0804598,20.8275862 C63.0804598,21.2643678 62.8735632,21.4712644 62.4597701,21.4712644 L49.1494253,21.4712644 C49.0114943,21.4712644 48.9425287,21.5402299 48.9425287,21.6781609 C48.9885057,22.7816092 49.1034483,23.5632184 49.2413793,24.045977 C49.5402299,25.2183908 50.1609195,26.1149425 51.1034483,26.8045977 C52.0229885,27.4712644 53.1724138,27.816092 54.5517241,27.816092 C56.8275862,27.7931034 58.4597701,26.8735632 59.4482759,25.0804598 Z M50.9425287,13.0344828 C50.1609195,13.6551724 49.6321839,14.4827586 49.3563218,15.5632184 C49.1494253,16.2068966 49.0344828,17.0114943 48.9885057,18 C48.9885057,18.137931 49.0574713,18.2068966 49.1954023,18.2068966 L58.7586207,18.2068966 C58.8965517,18.2068966 58.9655172,18.137931 58.9655172,18 C58.9195402,17.0344828 58.8275862,16.3218391 58.7126437,15.862069 C58.4367816,14.7356322 57.8850575,13.816092 57.0574713,13.1264368 C56.2298851,12.4367816 55.1954023,12.091954 53.954023,12.091954 C52.7356322,12.1149425 51.7241379,12.4137931 50.9425287,13.0344828 Z" id="Shape" fill="#1F263A"></path>
            <g id="Group" transform="translate(65.977011, 0.459770)">
                <path d="M4.06896552,30.0689655 C2.7816092,29.5402299 1.79310345,28.8275862 1.10344828,27.908046 C0.390804598,26.9885057 0.0459770115,25.9770115 0.0459770115,24.8735632 L0.0459770115,24.6206897 C0.0459770115,24.4137931 0.091954023,24.2528736 0.206896552,24.137931 C0.32183908,24.0229885 0.482758621,23.954023 0.666666667,23.954023 L3.28735632,23.954023 C3.49425287,23.954023 3.63218391,23.9770115 3.74712644,24.045977 C3.86206897,24.1149425 3.90804598,24.183908 3.90804598,24.2528736 L3.90804598,24.5977011 C3.90804598,25.4022989 4.34482759,26.1149425 5.1954023,26.7356322 C6.04597701,27.3563218 7.12643678,27.6551724 8.4137931,27.6551724 C9.70114943,27.6551724 10.7356322,27.3793103 11.5402299,26.8045977 C12.3218391,26.2298851 12.7126437,25.5172414 12.7126437,24.6436782 C12.7126437,23.7931034 12.3448276,23.1724138 11.6091954,22.7356322 C10.8735632,22.3218391 9.70114943,21.862069 8.06896552,21.4022989 C6.45977011,20.9425287 5.12643678,20.4597701 4.04597701,19.9770115 C2.96551724,19.4942529 2.04597701,18.8045977 1.31034483,17.9310345 C0.574712644,17.0344828 0.183908046,15.908046 0.183908046,14.5057471 C0.183908046,12.5517241 0.91954023,11.0114943 2.3908046,9.86206897 C3.86206897,8.71264368 5.81609195,8.13793103 8.27586207,8.13793103 C9.90804598,8.13793103 11.3333333,8.4137931 12.5977011,8.94252874 C13.8390805,9.47126437 14.8045977,10.2298851 15.4712644,11.1954023 C16.137931,12.1609195 16.4827586,13.2413793 16.4827586,14.4137931 C16.4827586,14.5977011 16.4367816,14.7356322 16.3218391,14.8275862 C16.2068966,14.9195402 16.045977,14.9885057 15.862069,14.9885057 L13.3333333,14.9885057 C13.1264368,14.9885057 12.9885057,14.9655172 12.8735632,14.8965517 C12.7586207,14.8275862 12.7126437,14.7586207 12.7126437,14.6896552 L12.7126437,14.4367816 C12.7126437,13.5862069 12.3218391,12.8965517 11.5172414,12.3218391 C10.7126437,11.7471264 9.63218391,11.4712644 8.25287356,11.4712644 C7.01149425,11.4712644 6.02298851,11.7241379 5.24137931,12.2068966 C4.45977011,12.7126437 4.09195402,13.3793103 4.09195402,14.2068966 C4.09195402,15.0574713 4.45977011,15.7011494 5.2183908,16.137931 C5.95402299,16.5747126 7.17241379,17.0344828 8.82758621,17.5402299 C10.4597701,18 11.816092,18.4597701 12.8965517,18.9195402 C13.9770115,19.3793103 14.8965517,20.045977 15.6551724,20.9195402 C16.4137931,21.816092 16.7816092,22.9655172 16.7816092,24.3908046 C16.7816092,26.3678161 16.0229885,27.9310345 14.5287356,29.1034483 C13.0344828,30.2758621 11.0114943,30.8505747 8.48275862,30.8505747 C6.82758621,30.8505747 5.35632184,30.5977011 4.06896552,30.0689655 Z" id="Shape" fill="#1F263A"></path>
                <path d="M31.0114943,11.6551724 C30.8965517,11.7701149 30.7356322,11.8390805 30.5517241,11.8390805 L26.2528736,11.8390805 C26.1149425,11.8390805 26.045977,11.908046 26.045977,12.045977 L26.045977,23.4482759 C26.045977,24.6896552 26.2988506,25.5862069 26.8275862,26.1149425 C27.3563218,26.6436782 28.183908,26.8965517 29.3333333,26.8965517 L30.3448276,26.8965517 C30.5517241,26.8965517 30.6896552,26.9655172 30.8045977,27.0804598 C30.9195402,27.1954023 30.9655172,27.3563218 30.9655172,27.5632184 L30.9655172,29.8390805 C30.9655172,30.2528736 30.7586207,30.4827586 30.3448276,30.5287356 L28.6206897,30.5747126 C26.4597701,30.5747126 24.8505747,30.183908 23.7701149,29.4022989 C22.7126437,28.6206897 22.1609195,27.1494253 22.1609195,24.9885057 L22.1609195,12.0689655 C22.1609195,11.9310345 22.091954,11.862069 21.954023,11.862069 L19.6321839,11.862069 C19.4252874,11.862069 19.2873563,11.7931034 19.1724138,11.6781609 C19.0574713,11.5632184 19.0114943,11.4022989 19.0114943,11.1954023 L19.0114943,9.05747126 C19.0114943,8.85057471 19.0574713,8.68965517 19.1724138,8.57471264 C19.2873563,8.45977011 19.4482759,8.3908046 19.6321839,8.3908046 L21.954023,8.3908046 C22.091954,8.3908046 22.1609195,8.32183908 22.1609195,8.18390805 L22.1609195,3.28735632 C22.1609195,3.08045977 22.2068966,2.91954023 22.3218391,2.8045977 C22.4367816,2.68965517 22.5977011,2.62068966 22.7816092,2.62068966 L25.4022989,2.62068966 C25.6091954,2.62068966 25.7471264,2.68965517 25.862069,2.8045977 C25.9770115,2.91954023 26.0229885,3.08045977 26.0229885,3.28735632 L26.0229885,8.18390805 C26.0229885,8.32183908 26.091954,8.3908046 26.2298851,8.3908046 L30.5287356,8.3908046 C30.7356322,8.3908046 30.8735632,8.45977011 30.9885057,8.57471264 C31.1034483,8.68965517 31.1494253,8.85057471 31.1494253,9.05747126 L31.1494253,11.1954023 C31.1724138,11.3793103 31.1264368,11.5402299 31.0114943,11.6551724 Z" id="Shape" fill="#1F263A"></path>
                <path d="M39.3563218,29.7701149 C37.8390805,28.9885057 36.6666667,27.8850575 35.8390805,26.4597701 C35.0114943,25.0344828 34.5977011,23.3793103 34.5977011,21.5172414 L34.5977011,19.7241379 C34.5977011,19.5172414 34.6436782,19.3563218 34.7586207,19.2413793 C34.8735632,19.1264368 35.0344828,19.0574713 35.2183908,19.0574713 L38,19.0574713 C38.2068966,19.0574713 38.3448276,19.1264368 38.4597701,19.2413793 C38.5747126,19.3563218 38.6206897,19.5172414 38.6206897,19.7241379 L38.6206897,21.5172414 C38.6206897,23.2643678 39.1724138,24.6666667 40.2528736,25.7241379 C41.3563218,26.7816092 42.8045977,27.3103448 44.5977011,27.3103448 C46.4137931,27.3103448 47.8850575,26.7816092 48.9885057,25.7241379 C50.091954,24.6666667 50.6206897,23.2643678 50.6206897,21.5172414 L50.6206897,0.689655172 C50.6206897,0.482758621 50.6666667,0.32183908 50.7816092,0.206896552 C50.8965517,0.091954023 51.0574713,0.0229885057 51.2413793,0.0229885057 L53.9770115,0.0229885057 C54.183908,0.0229885057 54.3218391,0.091954023 54.4367816,0.206896552 C54.5517241,0.32183908 54.5977011,0.482758621 54.5977011,0.689655172 L54.5977011,21.5172414 C54.5977011,23.3793103 54.183908,25.0344828 53.3563218,26.4597701 C52.5287356,27.8850575 51.3563218,28.9885057 49.8390805,29.7701149 C48.3218391,30.5517241 46.5747126,30.9425287 44.5747126,30.9425287 C42.6206897,30.9425287 40.8735632,30.5517241 39.3563218,29.7701149 Z" id="Shape" fill="#00CFB4"></path>
                <path d="M62.2298851,29.3103448 C60.6896552,28.2298851 59.6321839,26.6896552 59.0114943,24.7586207 C58.5057471,23.1954023 58.2528736,21.4022989 58.2528736,19.4252874 C58.2528736,17.3563218 58.4827586,15.6091954 58.9655172,14.183908 C59.5862069,12.2528736 60.6666667,10.7586207 62.2068966,9.67816092 C63.7471264,8.59770115 65.5862069,8.04597701 67.7241379,8.04597701 C69.7471264,8.04597701 71.5172414,8.59770115 73.0114943,9.67816092 C74.5057471,10.7586207 75.5862069,12.2528736 76.2298851,14.1609195 C76.7356322,15.6551724 76.9885057,17.3793103 76.9885057,19.4022989 C76.9885057,21.4482759 76.7356322,23.2183908 76.2298851,24.7586207 C75.6091954,26.7126437 74.5517241,28.2298851 73.0344828,29.3103448 C71.5172414,30.3908046 69.7241379,30.9425287 67.6781609,30.9425287 C65.5862069,30.9425287 63.7701149,30.4137931 62.2298851,29.3103448 Z M70.6436782,26.3448276 C71.4942529,25.7011494 72.091954,24.7586207 72.4597701,23.5632184 C72.7586207,22.4597701 72.9195402,21.0804598 72.9195402,19.4712644 C72.9195402,17.8390805 72.7816092,16.4827586 72.5057471,15.4022989 C72.137931,14.2068966 71.5402299,13.2873563 70.6896552,12.6206897 C69.8390805,11.9770115 68.8275862,11.6321839 67.6091954,11.6321839 C66.4597701,11.6321839 65.4712644,11.954023 64.6206897,12.6206897 C63.7701149,13.2643678 63.1724138,14.2068966 62.8045977,15.4022989 C62.5057471,16.4137931 62.3448276,17.7701149 62.3448276,19.4712644 C62.3448276,21.1494253 62.5057471,22.5287356 62.8045977,23.5632184 C63.1494253,24.7586207 63.7471264,25.6781609 64.5977011,26.3448276 C65.4482759,26.9885057 66.4827586,27.3333333 67.7011494,27.3333333 C68.8045977,27.3333333 69.7931034,26.9885057 70.6436782,26.3448276 Z" id="Shape" fill="#00CFB4"></path>
                <path d="M79.4712644,39.1494253 C79.4252874,39.0344828 79.3793103,38.8735632 79.3793103,38.6666667 L79.3793103,36.4367816 C79.3793103,36 79.4712644,35.7931034 79.6321839,35.7931034 L79.8850575,35.7931034 C81.0114943,35.7931034 81.8850575,35.6551724 82.5057471,35.4022989 C83.1264368,35.1494253 83.6781609,34.6436782 84.1149425,33.9310345 C84.5517241,33.2183908 84.9655172,32.137931 85.3563218,30.7126437 C85.3793103,30.6436782 85.3793103,30.5747126 85.3563218,30.4597701 L78.4137931,9.12643678 C78.3908046,9.05747126 78.3678161,8.98850575 78.3678161,8.87356322 C78.3678161,8.55172414 78.5517241,8.3908046 78.9195402,8.3908046 L81.862069,8.3908046 C82.2298851,8.3908046 82.4597701,8.57471264 82.5747126,8.91954023 L87.3333333,24.6206897 C87.3563218,24.7356322 87.4022989,24.8045977 87.4482759,24.8045977 C87.4942529,24.8045977 87.5402299,24.7356322 87.5632184,24.6206897 L92.1609195,8.96551724 C92.183908,8.7816092 92.2758621,8.64367816 92.4137931,8.55172414 C92.5517241,8.45977011 92.7126437,8.3908046 92.8735632,8.3908046 L95.816092,8.3908046 C96.045977,8.3908046 96.183908,8.45977011 96.2758621,8.59770115 C96.3678161,8.73563218 96.3678161,8.91954023 96.3218391,9.14942529 L88.7816092,32.137931 C88.137931,34.137931 87.4942529,35.6321839 86.8505747,36.6436782 C86.2068966,37.6321839 85.3563218,38.3218391 84.3218391,38.7356322 C83.2873563,39.1494253 81.816092,39.3563218 79.9310345,39.3563218 L79.6321839,39.3563218 C79.5862069,39.3333333 79.5172414,39.2643678 79.4712644,39.1494253 Z" id="Shape" fill="#00CFB4"></path>
            </g>
            <path d="M16.7816092,10.3678161 C16.8965517,10.4597701 17.0574713,10.5057471 17.2413793,10.5057471 L20.0229885,10.5057471 C20.2298851,10.5057471 20.3678161,10.4367816 20.4827586,10.3218391 C20.5977011,10.2068966 20.6436782,10.045977 20.6436782,9.83908046 L20.6436782,9.5862069 C20.6436782,7.79310345 20.2068966,6.16091954 19.3563218,4.71264368 C18.5057471,3.26436782 17.3103448,2.13793103 15.7471264,1.33333333 C14.2068966,0.528735632 12.4137931,0.114942529 10.3908046,0.114942529 C8.36781609,0.114942529 6.57471264,0.528735632 5.01149425,1.35632184 C3.44827586,2.18390805 2.25287356,3.35632184 1.37931034,4.87356322 C0.528735632,6.3908046 0.091954023,8.13793103 0.091954023,10.1609195 L0.091954023,21.3333333 C0.091954023,23.3103448 0.528735632,25.0574713 1.37931034,26.5977011 C2.22988506,28.1149425 3.44827586,29.3103448 5.01149425,30.137931 C6.57471264,30.9655172 8.36781609,31.3793103 10.3908046,31.3793103 C12.8505747,31.3793103 14.9195402,30.8275862 16.5747126,29.7241379 L16.5747126,30.4367816 C16.5747126,30.8045977 16.8735632,31.0804598 17.2183908,31.0804598 L20,31.0804598 C20.3678161,31.0804598 20.6436782,30.7816092 20.6436782,30.4367816 L20.6436782,17.4022989 C20.6436782,17.4252874 20.6436782,17.4712644 20.6436782,17.4942529 C20.3908046,19.1494253 18.9655172,21.2873563 16.5977011,22.3678161 C16.5517241,23.9770115 16,25.2643678 14.9885057,26.2068966 C13.908046,27.2183908 12.4367816,27.7241379 10.5977011,27.7241379 C8.68965517,27.7241379 7.14942529,27.1494253 5.95402299,26.0229885 C4.7816092,24.8965517 4.18390805,23.3793103 4.18390805,21.4942529 L4.18390805,10.0689655 C4.18390805,8.18390805 4.75862069,6.66666667 5.88505747,5.54022989 C7.01149425,4.4137931 8.52873563,3.83908046 10.4137931,3.83908046 C12.2758621,3.83908046 13.7701149,4.3908046 14.8965517,5.47126437 C16.0229885,6.55172414 16.5977011,7.97701149 16.5977011,9.72413793 L16.5977011,10.1149425 C16.6206897,10.183908 16.6666667,10.2758621 16.7816092,10.3678161 Z" id="Shape" fill="#1F263A"></path>
            <path d="M19.6091954,16.9425287 C18.091954,18.1149425 15.8850575,18.8505747 13.4252874,18.8505747 C10.9655172,18.8505747 8.75862069,18.1149425 7.24137931,16.9425287 C6.8045977,16.6206897 6.11494253,16.9195402 6.20689655,17.4712644 C6.55172414,19.7701149 9.1954023,23.0344828 13.4252874,23.0344828 C14.6206897,23.0344828 15.6781609,22.7816092 16.5977011,22.3678161 C18.9655172,21.2873563 20.3908046,19.1494253 20.6436782,17.4942529 C20.6436782,17.4712644 20.6436782,17.4252874 20.6436782,17.4022989 C20.6666667,16.8965517 20.0229885,16.6206897 19.6091954,16.9425287 Z" id="Shape" fill="#00CFB4"></path>
        </g>
    </g>
</svg>