<svg xmlns="http://www.w3.org/2000/svg" fill="none" height="36" viewBox="0 0 160 36" width="160"><g fill="#1a1e42"><path d="m27.9496 30.9707c-8.5516 0-15.51-6.9214-15.51-15.4307 0-1.7178 1.3993-3.1094 3.1257-3.1094 1.7263 0 3.1256 1.3916 3.1256 3.1094 0 5.0793 4.1534 9.2118 9.2587 9.2118 5.1054 0 9.2588-4.1325 9.2588-9.2118 0-1.7178 1.3993-3.1094 3.1256-3.1094 1.7264 0 3.1257 1.3916 3.1257 3.1094 0 8.5086-6.9577 15.4307-15.5101 15.4307z"></path><path d="m40.3581 9.34733c1.7134 0 3.1023-1.3855 3.1023-3.0946s-1.3889-3.09459-3.1023-3.09459c-1.7133 0-3.1023 1.38549-3.1023 3.09459s1.389 3.0946 3.1023 3.0946z"></path><path d="m15.51 0c8.5517 0 15.5101 6.92136 15.5101 15.4306 0 1.7178-1.3993 3.1094-3.1257 3.1094-1.7263 0-3.1256-1.3916-3.1256-3.1094 0-5.0793-4.1534-9.21176-9.2588-9.21176-5.1053 0-9.2587 4.13246-9.2587 9.21176 0 1.7178-1.39932 3.1094-3.12565 3.1094s-3.12565-1.3923-3.12565-3.1094c0-8.50924 6.95768-15.4306 15.51-15.4306z"></path><path d="m3.10229 27.8125c1.71335 0 3.1023-1.3855 3.1023-3.0946s-1.38895-3.0946-3.1023-3.0946-3.10229 1.3855-3.10229 3.0946 1.38894 3.0946 3.10229 3.0946z"></path><path d="m73.9121 27.3239c0 .2697-.218.4886-.4862.4886h-2.5686c-1.0752 0-1.9465-.8748-1.9465-1.9536v-7.6182c0-.2697-.218-.4886-.4863-.4886h-9.4986c-.269 0-.4863.2189-.4863.4886v9.0832c0 .2697-.218.4886-.4863.4886h-2.5325c-1.0751 0-1.9464-.8748-1.9464-1.9536v-22.32656c0-.26971.218-.48858.4862-.48858h2.5326c1.0751 0 1.9464.87479 1.9464 1.95362v7.24122c0 .2697.218.4886.4863.4886h9.4986c.269 0 .4863-.2189.4863-.4886v-8.70626c0-.26971.218-.48858.4863-.48858h2.398c1.1693 0 2.1163.94539 2.1163 2.11107v22.16907z"></path><path d="m87.332 21.9841c.1536-.2718.516-.3325.7553-.1306.8819.7442 2.2069 1.3514 3.6267 1.3514 2.2919 0 3.6728-1.4305 3.6728-3.8148v-14.40542c0-1.07955.8678-1.95434 1.9387-1.95434h2.6323c.2672 0 .4852.21888.4852.48859v15.94457c0 5.796-3.344 8.3631-8.3276 8.3631-2.3372 0-4.7303-.5888-6.4389-2.1075-.1748-.1553-.2194-.4095-.1048-.6129l1.761-3.1214z"></path><path d="m149.714 28.484-1.953 6.2951c-.086.2746.121.5535.409.5535h3.767c.186 0 .351-.12.408-.2972l7.634-23.8163c.089-.2761-.118-.5578-.408-.5578h-2.627c-.898 0-1.689.5923-1.943 1.4558l-3.874 12.3904c-.028.0939-.113.1582-.211.1582-.1 0-.187-.0678-.212-.1645l-3.44-12.3262c-.235-.8924-1.039-1.5137-1.958-1.5137h-2.635c-.286 0-.492.2753-.41.5493l4.606 15.4546c.227.7498.916 1.2645 1.696 1.2645h.742c.289 0 .495.2789.409.5536z"></path><path d="m105.925 27.8542h2.294c.298 0 .54-.233.54-.5204v-14.661c0-1.1494-.856-2.0814-2.048-2.0814h-2.406c-.298 0-.539.233-.539.5203v14.7599c0 1.0951.892 1.9833 1.994 1.9833h.164z"></path><path d="m106.262 8.04044c1.379 0 2.497-1.11681 2.497-2.49446s-1.118-2.49445-2.497-2.49445-2.496 1.1168-2.496 2.49445 1.117 2.49446 2.496 2.49446z"></path><path d="m79.3721 27.8542h2.2947c.298 0 .5394-.233.5394-.5204v-14.661c0-1.1494-.8558-2.0814-2.0477-2.0814h-2.4058c-.298 0-.5394.233-.5394.5203v14.7599c0 1.0951.8926 1.9833 1.9939 1.9833h.1642z"></path><path d="m79.7097 8.04044c1.3788 0 2.4965-1.11681 2.4965-2.49446s-1.1177-2.49445-2.4965-2.49445c-1.3787 0-2.4964 1.1168-2.4964 2.49445s1.1177 2.49446 2.4964 2.49446z"></path><path d="m139.139 7.06468c.245 0 .443-.1984.443-.44269v-3.13554c0-.24429-.198-.44269-.443-.44269h-4.16c-2.932 0-5.308 2.18662-5.308 5.30592v1.85972c0 .2344-.191.4243-.425.4243h-1.666c-.235 0-.425.19-.425.4244v3.4935c0 .2344.19.4243.425.4243h1.666c.234 0 .425.1899.425.4243v10.4785c0 1.0957.889 1.9847 1.985 1.9847h2.468c.298 0 .539-.2345.539-.5232v-11.94c0-.2344.191-.4243.425-.4243h3.354c.234 0 .424-.1899.424-.4243v-3.5055c0-.2344-.19-.4244-.424-.4244h-3.908c-.234 0-.425-.1899-.425-.4243v-1.50528c0-.85926.697-1.62744 1.557-1.62744z"></path><path d="m124.049 7.06468c.244 0 .443-.1984.443-.44269v-3.13554c0-.24429-.199-.44269-.443-.44269h-4.16c-2.932 0-5.309 2.18662-5.309 5.30592v1.85972c0 .2344-.19.4243-.424.4243h-1.667c-.234 0-.424.19-.424.4244v3.4935c0 .2344.19.4243.424.4243h1.667c.234 0 .424.1899.424.4243v10.4785c0 1.0957.889 1.9847 1.986 1.9847h2.539c.298 0 .539-.2345.539-.5232v-11.94c0-.2344.19-.4243.425-.4243h3.282c.235 0 .425-.1899.425-.4243v-3.5055c0-.2344-.19-.4244-.425-.4244h-3.907c-.235 0-.425-.1899-.425-.4243v-1.50528c0-.85926.697-1.62744 1.557-1.62744z"></path></g></svg>