<?xml version="1.0" encoding="utf-8"?>
<!-- Generator: Adobe Illustrator 27.8.1, SVG Export Plug-In . SVG Version: 6.00 Build 0)  -->
<svg version="1.1" id="Layer_1" xmlns="http://www.w3.org/2000/svg" xmlns:xlink="http://www.w3.org/1999/xlink" x="0px" y="0px"
	 viewBox="0 0 666 266" style="enable-background:new 0 0 666 266;" xml:space="preserve">
<style type="text/css">
	.st0{fill:#333333;}
	.st1{fill:#666666;}
	.st2{fill:#FF6600;}
</style>
<g>
	<g>
		<path class="st0" d="M30.7,66.3h12.4c2.5,0,5.4-0.1,8.7-0.3c3.3-0.2,6.4-1,9.3-2.4c2.9-1.4,5.4-3.6,7.5-6.6
			c2.1-3,3.1-7.2,3.1-12.7c0-4.9-0.9-8.7-2.7-11.4c-1.8-2.7-4-4.6-6.7-5.8c-2.7-1.2-5.5-1.9-8.4-2.1c-2.9-0.2-5.5-0.3-7.6-0.3H30.7
			V66.3z M0,1.2h44.7c5.2,0,10.2,0.1,14.9,0.4c4.7,0.3,9.3,1,13.5,2.1c4.3,1.1,8.2,2.7,11.8,4.8c3.6,2.1,6.9,4.9,10,8.5
			c3.9,4.7,6.3,9.4,7.3,14.2c1,4.8,1.5,9.1,1.5,12.8c0,8.4-1.6,16-4.9,22.7c-3.3,6.8-7.8,12-13.5,15.7c-2.7,1.7-5.5,3.1-8.5,4
			c-3,0.9-6,1.6-9,2c-3,0.4-5.8,0.6-8.5,0.7c-2.7,0.1-4.9,0.1-6.8,0.1h-21v56.3H0V1.2z"/>
		<path class="st0" d="M132.3,96.2c0,11.4,1.9,19.6,5.6,24.8c3.7,5.1,9.3,7.7,16.6,7.7c3.2,0,6.2-0.5,8.9-1.6c2.7-1.1,5-2.9,6.9-5.6
			c1.9-2.7,3.3-6.2,4.4-10.7c1.1-4.5,1.6-10.1,1.6-16.7c0-3.3-0.2-6.9-0.7-10.6c-0.5-3.7-1.5-7.2-3-10.4c-1.5-3.2-3.8-5.8-6.7-7.9
			c-2.9-2.1-6.9-3.1-11.8-3.1c-5.5,0-9.7,1.4-12.6,4.1c-2.9,2.7-5.1,5.9-6.4,9.6c-1.3,3.7-2.1,7.4-2.4,11.3
			C132.4,90.9,132.3,93.9,132.3,96.2 M101.8,96c0-6.1,0.9-12.4,2.6-18.7c1.7-6.3,4.6-12.1,8.6-17.3c4-5.2,9.3-9.5,16-12.8
			c6.7-3.3,15-5,25-5c9.2,0,17.1,1.4,23.7,4.3c6.6,2.9,12.1,6.8,16.3,11.6c4.3,4.9,7.4,10.5,9.4,16.9c2,6.4,3,13.2,3,20.2
			c0,7.1-1,13.9-3.1,20.4c-2.1,6.5-5.3,12.3-9.6,17.3c-4.3,5-9.9,9-16.5,11.9c-6.7,2.9-14.6,4.4-23.8,4.4c-7.2,0-14-1.1-20.2-3.3
			c-6.3-2.2-11.8-5.5-16.4-10c-4.7-4.5-8.4-10.1-11-16.7C103.1,112.6,101.8,104.8,101.8,96"/>
	</g>
	<rect x="220.9" y="0.8" class="st0" width="29.7" height="144.9"/>
	<g>
		<path class="st1" d="M350.9,48.1c-0.1-1.2-0.4-3.2-0.9-6c-0.5-2.8-1.5-5.6-3.1-8.5c-1.6-2.9-3.9-5.4-7-7.6
			c-3.1-2.2-7.2-3.3-12.4-3.3c-5.7,0-10.7,1.4-14.8,4.2c-4.1,2.8-7.5,6.6-10.1,11.5c-2.6,4.9-4.5,10.6-5.8,17.1
			c-1.3,6.5-1.9,13.6-1.9,21c0,1.5,0,3.7,0.1,6.7c0.1,3,0.4,6.3,1,10c0.6,3.7,1.5,7.4,2.7,11.3c1.2,3.9,2.9,7.4,5.2,10.6
			c2.3,3.2,5.1,5.8,8.5,7.9c3.4,2.1,7.6,3.1,12.7,3.1c3.2,0,6.3-0.5,9.4-1.6c3.1-1.1,5.8-2.7,8.2-4.9c2.4-2.2,4.4-5,5.9-8.5
			c1.5-3.5,2.4-7.6,2.5-12.4h32.7c-0.1,2.1-0.3,4.5-0.6,7.2c-0.3,2.7-0.8,5.5-1.7,8.5c-0.9,3-2.1,6.1-3.8,9.2
			c-1.7,3.1-4,6.2-6.9,9.1c-3.2,3.3-6.6,6-10.1,8.1c-3.5,2.1-7.1,3.7-10.8,4.9c-3.7,1.2-7.3,2-10.9,2.5c-3.6,0.5-7.1,0.7-10.4,0.7
			c-12.4,0-22.9-2.1-31.4-6.3c-8.5-4.2-15.3-9.8-20.4-16.6c-5.1-6.9-8.8-14.7-11-23.3c-2.2-8.7-3.3-17.5-3.3-26.5
			c0-11.5,1.5-21.9,4.6-31.3c3.1-9.4,7.5-17.4,13.2-24.1c5.7-6.7,12.7-11.9,20.9-15.5c8.2-3.7,17.4-5.5,27.6-5.5
			c7.9,0,15.1,1.2,21.7,3.5c6.6,2.3,12.3,5.6,17,9.8c4.7,4.2,8.4,9.3,11.1,15.1c2.7,5.9,4,12.4,4,19.6H350.9z"/>
		<path class="st1" d="M453.1,98c-4.8-0.4-9.2-0.3-13.1,0.2c-3.9,0.5-7.4,1.5-10.3,2.9c-2.9,1.4-5.2,3.2-6.8,5.5
			c-1.6,2.3-2.4,4.9-2.4,7.8c0,1.7,0.3,3.4,0.9,5.1c0.6,1.7,1.5,3.2,2.7,4.6c1.2,1.4,2.7,2.5,4.5,3.4c1.8,0.9,3.9,1.3,6.3,1.3
			c2.7,0,5.1-0.6,7.2-1.7c2.1-1.1,3.9-2.5,5.4-4.1c2.7-3.2,4.3-6.8,4.8-10.8C452.9,108.2,453.1,103.5,453.1,98 M456.9,145.7
			c-0.5-3.1-0.8-5.8-0.9-8.1c-0.1-2.3-0.1-4.2-0.1-5.7c-2.8,4-5.7,7.1-8.7,9.3c-3,2.2-5.8,3.8-8.5,4.8c-2.7,1-5.2,1.6-7.5,1.8
			c-2.3,0.2-4.2,0.3-5.5,0.3c-7.3,0-12.9-0.9-16.6-2.6c-3.7-1.7-6.6-3.5-8.6-5.4c-3.1-3.1-5.3-6.5-6.7-10.4
			c-1.4-3.9-2.1-7.8-2.1-11.8c0-2,0.2-4.4,0.7-7.1c0.5-2.7,1.5-5.5,3-8.4c1.5-2.9,3.7-5.7,6.5-8.5c2.8-2.8,6.5-5.3,11.2-7.4
			c3.1-1.3,6.4-2.4,10.1-3.2c3.7-0.8,7.3-1.4,10.9-1.7c3.6-0.3,7.1-0.5,10.4-0.6c3.3-0.1,6.2-0.1,8.6-0.1c0-3.3-0.1-5.9-0.2-7.8
			c-0.1-1.9-0.5-3.7-1.2-5.6c-0.7-1.9-1.6-3.3-2.8-4.4c-1.2-1.1-2.4-1.9-3.7-2.5c-1.3-0.6-2.5-1-3.8-1.2c-1.3-0.2-2.2-0.3-2.9-0.3
			c-2.1,0-4.2,0.5-6.2,1.4c-2,0.9-3.7,2.3-5,4.2c-1.1,1.7-1.7,3.4-1.9,4.9c-0.2,1.5-0.3,2.9-0.3,4.1H396c0-1.3,0.1-3,0.3-4.9
			c0.2-1.9,0.7-4,1.5-6.2c0.8-2.2,1.9-4.4,3.4-6.6c1.5-2.2,3.5-4.2,6.2-6.1c4.7-3.3,9.7-5.5,15.2-6.6c5.5-1.1,10.6-1.6,15.4-1.6
			c2.1,0,4.7,0.1,7.8,0.4c3.1,0.3,6.3,0.9,9.6,1.8c3.3,0.9,6.6,2.2,9.9,3.9c3.3,1.7,6.2,4,8.7,6.9c1.7,2,3.1,4.2,4,6.7
			c0.9,2.5,1.6,4.8,2.1,7.1c0.5,2.3,0.7,4.4,0.8,6.3c0.1,1.9,0.1,3.5,0.1,4.7l0.2,40.7c0,4.3,0.2,8.6,0.5,12.8
			c0.3,4.3,1,8.5,1.9,12.8H456.9z"/>
		<path class="st1" d="M497.6,69.3c0-1.2,0-2.9-0.1-5.1c-0.1-2.2-0.2-4.6-0.3-7.1c-0.1-2.5-0.3-5-0.5-7.3c-0.2-2.3-0.4-4.2-0.5-5.7
			h27.9l0.6,19.4c0.9-2.1,2.1-4.4,3.6-6.8c1.5-2.4,3.5-4.6,6-6.6c2.5-2,5.8-3.6,9.8-4.8c4-1.2,9-1.7,15-1.4v26.7
			c-7.5-0.7-13.4-0.3-17.6,1c-4.3,1.3-7.5,3.3-9.6,5.8c-2.1,2.5-3.4,5.4-3.9,8.7c-0.5,3.3-0.7,6.5-0.7,9.7v49.9h-29.7V69.3z"/>
		<path class="st1" d="M593.4,96.6c0,4.3,0.4,8.3,1.1,12.1c0.7,3.8,1.9,7.2,3.5,10.1c1.6,2.9,3.7,5.3,6.3,7c2.6,1.7,5.8,2.6,9.5,2.6
			c4.3,0,8.1-1.1,11.4-3.4c3.3-2.3,5.8-4.9,7.4-8c2.3-4.3,3.6-8.7,4.1-13.2c0.5-4.5,0.7-8.1,0.7-10.6c0-10-2-17.6-5.9-22.8
			c-3.9-5.2-9.3-7.8-16.1-7.8c-4.9,0-8.9,1.3-11.8,3.9c-2.9,2.6-5.1,5.7-6.6,9.3c-1.5,3.6-2.4,7.4-2.9,11.2
			C593.7,90.9,593.4,94.1,593.4,96.6 M636.5,1h29.7v128.3c0,3.1,0.1,6.1,0.2,9.1c0.1,3,0.3,5.4,0.6,7.3h-29.9l-0.8-14.6
			c-1.1,1.9-2.3,3.7-3.6,5.6c-1.3,1.9-3.5,3.8-6.6,5.8c-3.7,2.4-7.4,3.9-10.9,4.4c-3.5,0.5-6.4,0.8-8.7,0.8
			c-13.6,0-24.2-4.4-31.8-13.2c-7.5-8.8-11.3-21.2-11.3-37.1c0-8.4,1.1-16,3.3-22.6c2.2-6.7,5.2-12.4,9.1-17
			c3.9-4.7,8.5-8.3,14-10.8c5.5-2.5,11.6-3.8,18.2-3.8c4.5,0,8.5,0.6,11.7,1.7c3.3,1.1,6,2.4,8.3,3.9c2.3,1.5,4.1,3,5.4,4.5
			c1.3,1.5,2.3,2.8,3,3.7V1z"/>
		<path class="st0" d="M406.3,199.5c-0.3,0-0.7,0-1-0.1c-0.4,0-0.7,0-1.1,0c-0.8,0-1.3,0.1-1.7,0.3c-0.4,0.2-0.7,0.4-0.9,0.7
			c-0.2,0.3-0.3,0.6-0.3,0.9c0,0.3,0,0.7,0,1v3.1h4.6v2.7h-4.6v17h-3.6v-17h-3.9v-2.7h3.9v-2.2c0-0.7,0-1.3,0-1.7
			c0-0.5,0.1-0.9,0.1-1.2c0.1-0.4,0.1-0.7,0.3-0.9c0.1-0.3,0.3-0.5,0.4-0.8c0.4-0.6,1-1.1,1.8-1.5c0.8-0.4,1.8-0.6,3.1-0.6
			c0.5,0,1.1,0,1.6,0.1c0.5,0.1,1,0.1,1.4,0.2V199.5z"/>
		<path class="st0" d="M408.8,209.4c0-0.7,0-1.3-0.1-2c0-0.7-0.1-1.3-0.1-2h3.7l0.1,3.8c0.2-0.7,0.5-1.2,0.8-1.7
			c0.4-0.5,0.8-0.9,1.2-1.2c0.4-0.3,0.9-0.5,1.4-0.7c0.5-0.2,0.9-0.3,1.3-0.3c0.5-0.1,1-0.1,1.4-0.1c0.4,0,0.8,0,1.1,0v3.6
			c-0.2-0.1-0.4-0.1-0.7-0.2c-0.1,0-0.3,0-0.5,0h-0.6c-1.1,0-2,0.2-2.7,0.5c-0.7,0.3-1.2,0.7-1.6,1.2c-0.4,0.5-0.7,1.2-0.8,1.9
			c-0.2,0.7-0.2,1.5-0.2,2.3V225h-3.7V209.4z"/>
		<path class="st0" d="M421.4,215.4c0-1.2,0.2-2.4,0.5-3.7c0.3-1.3,0.9-2.4,1.6-3.4c0.8-1,1.8-1.9,3.1-2.5c1.3-0.6,2.9-1,4.8-1
			c1.9,0,3.6,0.3,4.8,1c1.2,0.7,2.2,1.5,2.9,2.6c0.7,1,1.2,2.1,1.5,3.3c0.3,1.2,0.4,2.3,0.4,3.3c0,1.4-0.2,2.8-0.6,4.1
			c-0.4,1.3-1,2.4-1.8,3.3c-0.8,1-1.9,1.7-3.1,2.3c-1.2,0.6-2.7,0.8-4.4,0.8c-1.6,0-3-0.3-4.2-0.8c-1.2-0.5-2.2-1.3-3-2.2
			c-0.8-0.9-1.4-2-1.8-3.2C421.6,218.2,421.4,216.9,421.4,215.4 M425.2,215.2c0,1,0.1,2,0.3,2.9c0.2,0.9,0.6,1.7,1.1,2.5
			c0.5,0.7,1.1,1.3,1.8,1.7c0.7,0.4,1.6,0.6,2.7,0.6c0.7,0,1.4-0.1,2.1-0.4c0.7-0.3,1.3-0.7,1.9-1.3c0.6-0.6,1-1.4,1.4-2.4
			c0.4-1,0.5-2.3,0.5-3.7c0-2.5-0.5-4.3-1.6-5.6c-1-1.3-2.4-1.9-4.1-1.9c-0.6,0-1.3,0.1-2,0.3c-0.7,0.2-1.4,0.6-2,1.2
			c-0.6,0.6-1.1,1.3-1.6,2.3C425.4,212.4,425.2,213.6,425.2,215.2"/>
		<path class="st0" d="M445.8,208l-0.1-2.6h3.7v2.9c0.5-0.8,1-1.4,1.5-1.8c0.5-0.4,1.1-0.8,1.7-1c0.6-0.2,1.1-0.4,1.6-0.4
			c0.5-0.1,1-0.1,1.4-0.1c1.1,0,2,0.1,2.7,0.4c0.7,0.2,1.3,0.6,1.8,0.9c0.5,0.4,0.9,0.8,1.2,1.2c0.3,0.4,0.5,0.8,0.7,1.2
			c0.2-0.3,0.4-0.6,0.7-1c0.3-0.4,0.7-0.8,1.2-1.2c0.5-0.4,1.1-0.7,1.9-1c0.8-0.3,1.7-0.4,2.8-0.4c0.7,0,1.5,0.1,2.3,0.3
			c0.8,0.2,1.6,0.5,2.3,1c0.7,0.5,1.3,1.2,1.8,2.1c0.5,0.9,0.7,2.1,0.7,3.5V225h-3.7v-12.6c0-0.9-0.1-1.5-0.2-1.9
			c-0.1-0.4-0.3-0.8-0.5-1c-0.3-0.4-0.8-0.8-1.4-1.2c-0.6-0.4-1.4-0.5-2.3-0.5c-0.6,0-1.1,0.1-1.6,0.2c-0.5,0.2-0.9,0.3-1.2,0.5
			s-0.6,0.4-0.9,0.7c-0.2,0.2-0.4,0.4-0.5,0.6c-0.2,0.3-0.4,0.7-0.5,1.1c-0.1,0.4-0.2,0.8-0.3,1.2c-0.1,0.4-0.1,0.8-0.1,1.1
			c0,0.4,0,0.6,0,0.8v11h-3.7v-13c0-1.2-0.4-2.2-1.1-3.1c-0.7-0.8-1.8-1.2-3.2-1.2c-0.6,0-1.2,0.1-1.7,0.3c-0.5,0.2-0.9,0.4-1.3,0.6
			c-0.4,0.2-0.6,0.5-0.9,0.7c-0.2,0.2-0.4,0.4-0.5,0.6c-0.4,0.6-0.7,1.2-0.7,2c-0.1,0.7-0.1,1.4-0.1,2V225h-3.7V208z"/>
	</g>
	<rect x="653.5" y="254.2" class="st2" width="10.8" height="10.8"/>
	<polygon class="st2" points="644.5,206 638,254.4 631.6,206 621.6,206 630.9,265 645.1,265 654.5,206 	"/>
	<g>
		<path class="st2" d="M500.6,206H495v7.8h5.6V265h9.8v-51.2h6.9V206h-6.9v-12c0-1.7,0.4-3.1,1.2-4c0.9-0.9,2.1-1.3,3.9-1.3h1.8v-8
			h-3.5c-4.3,0-8.5,0.9-10.5,2.8c-2,1.9-2.6,4.8-2.6,9V206z"/>
	</g>
	<rect x="520.3" y="206" class="st2" width="9.8" height="59"/>
	<g>
		<path class="st2" d="M575.3,238.9h20.4v-18.2c0-10.9-5.2-15.3-15.1-15.3c-10.3,0-15.1,4.4-15.1,15.4v29.9c0,10,6.1,15.1,15.1,15.1
			c9.1,0,15.1-4.2,15.1-15.1v-4.7h-9.5l0,5.6c0,4-1.5,6.8-5.5,6.8c-4,0-5.5-2.8-5.5-6.8V238.9z M575.3,218.7c0-3.3,0.9-6.8,5.4-6.8
			c4.6,0,5.5,3.4,5.5,6.8v12.2h-11V218.7z"/>
		<path class="st2" d="M552.1,231.5c-7.4-6.5-8-7.4-8-12.2c0-4.1,0.4-6.6,4-6.6c3.7,0,4.2,2.5,4.2,6.6v5.5h9.4v-8.9
			c0-7-5.4-10.5-13.8-10.5c-8.3,0-13.7,2.7-13.7,13.9c0,1.9,0,1.9,0,1.2c0,3.5,0,9.1,8.7,16.5l2.5,2.1c6.4,5.4,7.1,6,7.1,12.4
			c0,4-0.3,6.9-4.4,6.9c-4.1,0-4.4-3-4.4-4.9V246h-9.9v7.8c0,9.6,6.2,11.9,14.3,11.9c8.1,0,14.3-2.4,14.3-14.7v-1
			C562.3,241.4,560.7,239.1,552.1,231.5"/>
		<path class="st2" d="M608.9,212.1V206h-8.9v59h9.6v-41.1c0-3.2,1-5.3,2.8-6.5c1.7-1.2,3.8-1.6,6.5-1.6v-10.4
			c-5.1,0.1-7.3,1.1-9.9,6.5L608.9,212.1z"/>
	</g>
</g>
</svg>
