<svg width="144" height="67" viewBox="0 0 144 67" fill="none" xmlns="http://www.w3.org/2000/svg">
<g clip-path="url(#clip0_780_11139)">
<path d="M79.7149 19.7322C76.9812 24.4671 70.9263 26.0893 66.1914 23.356C61.4565 20.6223 59.8339 14.5674 62.5676 9.83256C65.3014 5.09764 71.3563 3.47501 76.0911 6.20876C80.8266 8.9425 82.4487 14.9973 79.7149 19.7322" fill="#1E82F0"/>
<path d="M57.2344 27.7127C55.5938 30.5546 51.9604 31.5278 49.1185 29.8872C46.2766 28.2465 45.3034 24.6131 46.9441 21.7712C48.5847 18.9299 52.2181 17.9561 55.06 19.5968C57.9013 21.2374 58.8751 24.8708 57.2345 27.7127" fill="#1E82F0"/>
<path d="M20.1819 55.2548C19.4157 56.519 18.2867 57.5269 16.7947 58.2791C15.3028 59.0323 13.4945 59.4081 11.3712 59.4081C8.17173 59.4081 5.53753 58.629 3.46785 57.0693C1.39738 55.5105 0.268342 53.3332 0.0804136 50.5372H7.41954C7.52643 51.6124 7.90952 52.4594 8.56856 53.0775C9.22707 53.6961 10.067 54.0051 11.0889 54.0051C11.976 54.0051 12.6748 53.7629 13.1858 53.2789C13.6962 52.7953 13.952 52.1498 13.952 51.3438C13.952 50.618 13.7164 50.0128 13.2464 49.5288C12.7755 49.0453 12.1908 48.6488 11.4922 48.3397C10.7928 48.0306 9.82503 47.661 8.58884 47.2308C6.78756 46.6128 5.31579 46.0148 4.17354 45.4361C3.0305 44.8583 2.0495 43.9985 1.22974 42.8554C0.409459 41.7134 0 40.2282 0 38.3998C0 36.7059 0.429694 35.2417 1.29034 34.0046C2.15046 32.7684 3.33984 31.8208 4.85894 31.1618C6.37731 30.5033 8.11826 30.1738 10.0808 30.1738C13.2526 30.1738 15.773 30.9268 17.6415 32.432C19.5098 33.9379 20.5651 36.0079 20.8071 38.6415H13.3471C13.2122 37.7009 12.8695 36.9549 12.319 36.4038C11.7676 35.8531 11.0216 35.5771 10.0807 35.5771C9.27446 35.5771 8.62218 35.793 8.12518 36.2227C7.62744 36.6526 7.37918 37.2847 7.37918 38.1176C7.37918 38.7896 7.60102 39.3611 8.0444 39.8312C8.48804 40.3018 9.04559 40.6848 9.71778 40.9804C10.3894 41.2765 11.3573 41.6528 12.6212 42.1094C14.4488 42.7281 15.941 43.3394 17.097 43.9441C18.2527 44.5493 19.2475 45.4299 20.0809 46.5853C20.9139 47.7418 21.3311 49.2467 21.3311 51.1016C21.3311 52.6075 20.948 53.9918 20.1819 55.2549V55.2548Z" fill="#253044"/>
<path d="M38.5006 59.127L31.7666 49.5701V59.127H24.8711V30.1631H31.7666V45.6591L38.5006 36.6266H46.6056L37.5328 47.8768L46.8073 59.127H38.5006L38.5006 59.127Z" fill="#253044"/>
<path d="M55.5371 36.627V59.1274H48.6416V36.627H55.5371V36.627Z" fill="#253044"/>
<path d="M78.7868 37.7342C80.2518 38.6614 81.4078 39.9923 82.2547 41.726C83.1016 43.4603 83.5251 45.5103 83.5251 47.8755C83.5251 50.2144 83.1016 52.2577 82.2547 54.0048C81.4078 55.7526 80.2518 57.0892 78.7868 58.0169C77.3217 58.944 75.6615 59.4079 73.8067 59.4079C72.0859 59.4079 70.6074 59.0186 69.3712 58.2384C68.1342 57.4593 67.2339 56.3975 66.6694 55.0531V66.0212H59.7739V36.6252H66.6694V40.6978C67.2339 39.3539 68.1342 38.2921 69.3712 37.512C70.6074 36.7328 72.0859 36.3428 73.8067 36.3428C75.6615 36.3428 77.3217 36.8063 78.7868 37.734V37.7342ZM68.0203 43.863C67.0929 44.845 66.6291 46.1817 66.6291 47.8755C66.6291 49.5425 67.0929 50.8734 68.0203 51.8674C68.9477 52.8624 70.1371 53.3593 71.5889 53.3593C73.0669 53.3593 74.2565 52.8758 75.1578 51.9077C76.058 50.9402 76.5084 49.5963 76.5084 47.8755C76.5084 46.1548 76.058 44.8108 75.1578 43.8428C74.2565 42.8753 73.0669 42.3912 71.5889 42.3912C70.1371 42.3912 68.9477 42.882 68.0203 43.863Z" fill="#253044"/>
<path d="M140.016 44.5534C131.815 58.7587 113.651 63.6255 99.4456 55.4243C85.2404 47.223 80.3735 29.059 88.5748 14.8538C96.776 0.648576 114.94 -4.21829 129.145 3.98296C143.35 12.1842 148.217 30.3482 140.016 44.5534Z" fill="#1E82F0"/>
<path d="M97.7717 31.3829V37.1554H93.7915V20.6992H100.239C102.194 20.6992 103.683 21.1843 104.708 22.1538C105.732 23.1239 106.244 24.4314 106.244 26.0759C106.244 27.1001 106.015 28.012 105.557 28.8109C105.1 29.6103 104.42 30.2387 103.521 30.6964C102.621 31.1542 101.527 31.3829 100.239 31.3829H97.7717V31.3829ZM102.194 26.076C102.194 24.6329 101.395 23.9113 99.7967 23.9113H97.7717V28.194H99.7967C101.395 28.194 102.194 27.4882 102.194 26.0759V26.076Z" fill="white"/>
<path d="M115.189 24.68C115.903 25.1301 116.431 25.7429 116.772 26.5188V24.1678H120.729V37.1559H116.772V34.8051C116.431 35.581 115.903 36.194 115.189 36.6439C114.475 37.0938 113.622 37.3188 112.629 37.3188C111.558 37.3188 110.6 37.0512 109.754 36.5157C108.908 35.9805 108.241 35.2087 107.753 34.1998C107.263 33.1914 107.019 32.0119 107.019 30.662C107.019 29.2965 107.263 28.1131 107.753 27.1122C108.241 26.1114 108.908 25.3432 109.754 24.808C110.6 24.2725 111.558 24.0049 112.629 24.0049C113.622 24.0049 114.475 24.2301 115.189 24.68V24.68ZM111.849 28.3342C111.329 28.8929 111.069 29.6691 111.069 30.662C111.069 31.6549 111.329 32.4308 111.849 32.9895C112.369 33.548 113.055 33.8275 113.909 33.8275C114.747 33.8275 115.433 33.5405 115.969 32.9662C116.504 32.3922 116.772 31.6243 116.772 30.662C116.772 29.6844 116.504 28.9126 115.969 28.3458C115.433 27.7796 114.747 27.4964 113.909 27.4964C113.055 27.4964 112.369 27.7757 111.849 28.3342V28.3342Z" fill="white"/>
<path d="M136.87 24.167H132.471L129.562 32.1275L126.443 24.167H121.997L127.444 36.6664L125.412 41.1167H129.712L136.87 24.167Z" fill="white"/>
</g>
<defs>
<clipPath id="clip0_780_11139">
<rect width="144" height="67.001" fill="white" transform="translate(0 -0.000976562)"/>
</clipPath>
</defs>
</svg>
